<?xml version="1.0" encoding="UTF-8"?>
<svg width="148px" height="148px" viewBox="0 0 148 148" version="1.1" xmlns="http://www.w3.org/2000/svg" xmlns:xlink="http://www.w3.org/1999/xlink">
    <!-- Generator: Sketch 50.2 (55047) - http://www.bohemiancoding.com/sketch -->
    <title>Group 30</title>
    <desc>Created with Sketch.</desc>
    <defs></defs>
    <g id="Page-1" stroke="none" stroke-width="1" fill="none" fill-rule="evenodd">
        <g id="Cómo-ser-parte-Copy" transform="translate(-646.000000, -1276.000000)" fill="#7AD6DF">
            <g id="Group-30" transform="translate(646.000000, 1276.000000)">
                <path d="M74,133.2 C41.2755556,133.2 14.8,106.7228 14.8,74 C14.8,41.2755556 41.2755556,14.8 74,14.8 C106.724444,14.8 133.2,41.2755556 133.2,74 C133.2,106.7228 106.724444,133.2 74,133.2 M74,0 C33.2177778,0 0,33.2177778 0,74 C0,114.782222 33.2177778,148 74,148 C114.782222,148 148,114.782222 148,74 C148,33.2177778 114.782222,0 74,0" id="Fill-1"></path>
                <polygon id="Fill-4" points="66.0583658 85.0163934 41.5836576 60.7540984 31 71.2459016 66.0583658 106 116 56.4918033 105.416342 46"></polygon>
            </g>
        </g>
    </g>
</svg>