<?xml version="1.0" encoding="UTF-8"?>
<svg width="46px" height="44px" viewBox="0 0 46 44" version="1.1" xmlns="http://www.w3.org/2000/svg" xmlns:xlink="http://www.w3.org/1999/xlink">
    <!-- Generator: Sketch 50.2 (55047) - http://www.bohemiancoding.com/sketch -->
    <title>Fill 1</title>
    <desc>Created with Sketch.</desc>
    <defs></defs>
    <g id="Page-1" stroke="none" stroke-width="1" fill="none" fill-rule="evenodd">
        <g id="INDEX" transform="translate(-65.000000, -3709.000000)" fill="#085BA8">
            <g id="Footer" transform="translate(-8.000000, 3659.000000)">
                <g id="Social-media" transform="translate(73.000000, 48.000000)">
                    <path d="M29.9686516,15.9461302 L26.6765723,15.9461302 C26.0683746,15.9461302 25.4462274,16.5175068 25.4462274,16.9379537 L25.4462274,19.7705801 L29.7538295,19.7705801 C29.5808559,21.9509748 29.2293287,24.0235625 29.2293287,24.0235625 L25.4266981,24.0235625 L25.4266981,36.569591 L19.7659956,36.569591 L19.7659956,24.0235625 L16.0749608,24.0235625 L16.0749608,19.7894463 L19.7659956,19.7894463 L19.7659956,16.3989192 C19.7659956,15.7790295 19.6292906,11.6365492 25.566193,11.6365492 L29.9686516,11.6365492 L29.9686516,15.9461302 Z M23.0218062,2.20614017 C10.5007451,2.20614017 0.356676927,12.008483 0.356676927,24.1017225 C0.356676927,36.1976572 10.5007451,46 23.0218062,46 C35.5400774,46 45.6897255,36.1976572 45.6897255,24.1017225 C45.6897255,12.008483 35.5400774,2.20614017 23.0218062,2.20614017 Z" id="Fill-1"></path>
                </g>
            </g>
        </g>
    </g>
</svg>