<?xml version="1.0" encoding="utf-8"?>
<!-- Generator: Adobe Illustrator 21.0.2, SVG Export Plug-In . SVG Version: 6.00 Build 0)  -->
<svg version="1.1" id="Capa_1" xmlns="http://www.w3.org/2000/svg" xmlns:xlink="http://www.w3.org/1999/xlink" x="0px" y="0px"
	 viewBox="0 0 77 77.1" style="enable-background:new 0 0 77 77.1;" xml:space="preserve">
<style type="text/css">
	.st0{fill:#7AD6DF;}
</style>
<path class="st0" d="M66.7,0H10.4C4.7,0,0,4.7,0,10.4v56.3c0,5.7,4.7,10.4,10.4,10.4h27.8V49.5H31c-0.9,0-1.7-0.8-1.7-1.7v-8.9
	c0-0.9,0.8-1.7,1.7-1.7h7.1v-8.6c0-10,6.1-15.4,15-15.4h7.3c0.9,0,1.7,0.8,1.7,1.7v7.5c0,0.9-0.8,1.7-1.7,1.7h-4.5
	c-4.8,0-5.8,2.3-5.8,5.7v7.4h10.6c1,0,1.8,0.9,1.7,1.9L61.3,48c-0.1,0.9-0.8,1.5-1.7,1.5h-9.5v27.6h16.5c5.7,0,10.4-4.7,10.4-10.4
	V10.4C77.1,4.6,72.4,0,66.7,0z"/>
</svg>
