<?xml version="1.0" encoding="UTF-8"?>
<svg width="182px" height="42px" viewBox="0 0 182 42" version="1.1" xmlns="http://www.w3.org/2000/svg" xmlns:xlink="http://www.w3.org/1999/xlink">
    <!-- Generator: Sketch 50.2 (55047) - http://www.bohemiancoding.com/sketch -->
    <title>Ficohsa logo</title>
    <desc>Created with Sketch.</desc>
    <defs>
        <linearGradient x1="80.4532167%" y1="37.4458955%" x2="8.96734597%" y2="75.0003731%" id="linearGradient-1">
            <stop stop-color="#BEBFC4" offset="3%"></stop>
            <stop stop-color="#BEBFC4" offset="34.02%"></stop>
            <stop stop-color="#69686C" offset="97%"></stop>
        </linearGradient>
        <linearGradient x1="96.7660468%" y1="23.5856655%" x2="1.44178845%" y2="68.5569966%" id="linearGradient-2">
            <stop stop-color="#0057A0" offset="4%"></stop>
            <stop stop-color="#0058A0" offset="20.56%"></stop>
            <stop stop-color="#002A5B" offset="96%"></stop>
        </linearGradient>
        <linearGradient x1="95.4505604%" y1="16.101855%" x2="1.03955149%" y2="69.8487352%" id="linearGradient-3">
            <stop stop-color="#87BFDB" offset="2%"></stop>
            <stop stop-color="#87BFDB" offset="41.36%"></stop>
            <stop stop-color="#4C7481" offset="98%"></stop>
        </linearGradient>
    </defs>
    <g id="Page-1" stroke="none" stroke-width="1" fill="none" fill-rule="evenodd">
        <g id="INDEX" transform="translate(-1186.000000, -3709.000000)" fill-rule="nonzero">
            <g id="Footer" transform="translate(-8.000000, 3659.000000)">
                <g id="Ficohsa-logo" transform="translate(1194.000000, 50.000000)">
                    <path d="M10.1289022,35.5020022 C9.94030089,37.2220604 11.2982305,38.7127776 11.9771954,39.3243538 C13.900929,40.8532945 16.993991,41.8853295 23.2555556,42 L19.8230112,35.1579905 C14.2781317,35.5402257 12.6184399,33.7054969 11.9017548,31.7560976 C10.8833076,32.9028031 10.2797833,34.1641791 10.1289022,35.5020022" id="Shape" fill="url(#linearGradient-1)"></path>
                    <path d="M4.04461327,25.8020478 C4.1184969,26.2058603 4.22932235,26.6096729 4.41403144,26.9767752 C4.85733324,28.0413718 6.85219135,32.6301507 7.40631861,33.804878 C7.36937679,28.0780821 15.7182274,23.452593 27.3179579,21.5069508 C28.2415033,21.3601099 29.9408269,20.589195 29.0911651,18.7169733 C28.4262124,17.2118538 26.8377143,13.6509615 26.2097034,12.2926829 C10.0291876,14.4585865 4.00767145,20.258803 4.04461327,25.8020478" id="Shape" fill="url(#linearGradient-2)"></path>
                    <path d="M0.511258552,15.5265085 C0.874289745,16.3971538 2.32641451,19.8071813 3.08878002,21.5121951 C4.10526736,17.4491836 8.5342479,11.3909431 25.8508358,9.03294534 L29.1181165,8.59762267 C29.1181165,8.59762267 31.1147881,8.37996134 29.9893914,6.09451734 C28.8639947,3.80907334 26.9762325,0 26.9762325,0 C6.10193891,1.958952 -2.24777851,8.92411467 0.511258552,15.5265085" id="Shape" fill="url(#linearGradient-3)"></path>
                    <g id="Group" transform="translate(40.444444, 11.268293)" fill="#00529C">
                        <path d="M55.1553253,16.9593496 C55.1553253,12.1788618 59.4826713,8.23306233 64.7268279,8.23306233 C69.8976396,8.23306233 74.261658,12.2168022 74.261658,16.9593496 L74.261658,21.5121951 C74.261658,26.4065041 69.934312,30.3523035 64.7268279,30.3523035 C59.4093264,30.3523035 55.1553253,26.4444444 55.1553253,21.5501355 L55.1553253,16.9593496 Z M69.6776051,16.9593496 C69.6776051,14.6070461 67.4405872,12.5582656 64.8001727,12.5582656 C62.1230858,12.5582656 59.8493955,14.6070461 59.8493955,16.9593496 L59.8493955,21.5121951 C59.8493955,24.0542005 62.0864134,26.102981 64.7635003,26.102981 C67.4039148,26.102981 69.6776051,24.0162602 69.6776051,21.5501355 L69.6776051,16.9593496 Z" id="Shape"></path>
                        <path d="M117.131721,13.7723577 C116.838342,14.1517615 116.288256,14.303523 115.884859,14.0758808 C115.884859,14.0758808 113.757858,12.4444444 110.494013,12.5203252 C108.367012,12.5582656 107.12015,13.3929539 107.12015,14.796748 C107.12015,16.1626016 108.110305,16.8455285 110.237306,16.9214092 C114.564652,17.0731707 115.774842,17.3387534 117.278411,18.5149051 C118.818653,19.6910569 119.698791,21.5501355 119.698791,23.5230352 C119.698791,27.696477 116.214911,30.3902439 110.934082,30.3902439 C107.266839,30.3902439 103.672942,28.9864499 101.472596,26.6341463 L103.929649,24.2059621 C104.259701,23.8644986 104.773115,23.902439 105.139839,24.1680217 C105.139839,24.1680217 107.633564,26.2168022 110.824064,26.1409214 C113.904548,26.0650407 115.334773,25.2303523 115.334773,23.5609756 C115.334773,22.0054201 114.344617,21.4363144 111.66753,21.3604336 C107.926943,21.3224932 106.386701,20.9051491 104.883132,19.6531165 C103.526252,18.4769648 102.719459,16.7317073 102.719459,14.8726287 C102.719459,10.9268293 105.873287,8.23306233 110.677375,8.23306233 C113.94122,8.23306233 116.691652,9.14363144 119.185377,11.00271 L117.131721,13.7723577 Z" id="Shape"></path>
                        <path d="M48.4075993,24.6233062 C48.4075993,24.6233062 46.4639609,25.9891599 44.6670121,25.9891599 C41.0731146,25.9891599 38.689407,23.3712737 38.689407,19.2737127 C38.689407,15.1761518 41.0731146,12.5582656 44.6670121,12.5582656 C46.4639609,12.5582656 48.4075993,13.9241192 48.4075993,13.9241192 C49.2510651,14.5311653 49.8378238,13.7344173 49.8378238,13.7344173 L51.928152,10.9268293 C49.8744963,9.10569106 47.4541163,8.19512195 44.7403569,8.19512195 C42.6867012,8.19512195 40.7063903,8.72628726 38.9827864,9.78861789 C35.6089234,11.8753388 34.1420265,14.7208672 34.0686816,19.2737127 C34.1420265,23.8265583 35.6089234,26.6720867 38.9827864,28.7588076 C40.7063903,29.8211382 42.6867012,30.3523035 44.7403569,30.3523035 C47.4541163,30.3523035 49.8744963,29.4417344 51.928152,27.6205962 L49.8378238,24.8130081 C49.8378238,24.8130081 49.2510651,24.0162602 48.4075993,24.6233062" id="Shape"></path>
                        <path d="M89.8107657,8.46070461 C86.4002303,8.46070461 84.2732297,10.5474255 84.2732297,10.5474255 C83.869833,10.8130081 83.6497985,10.699187 83.6497985,10.2059621 L83.6497985,1.02439024 C83.6497985,0.531165312 83.2464018,0.113821138 82.7696603,0.113821138 L79.0290731,0.113821138 L79.0290731,30.3523035 L82.7696603,30.3523035 C83.2464018,30.3523035 83.6497985,29.9349593 83.6497985,29.4417344 L83.6497985,17.604336 C83.6497985,14.6070461 85.4467473,12.7479675 88.3071963,12.7479675 C90.9842832,12.7479675 92.9645941,14.6070461 92.9645941,17.300813 L92.9645941,30.3523035 L96.7051813,30.3523035 C97.1819229,30.3523035 97.5853195,29.9349593 97.5853195,29.4417344 L97.5853195,16.1626016 C97.6219919,11.7615176 94.3214738,8.46070461 89.8107657,8.46070461" id="Shape"></path>
                        <path d="M25.6340242,8.76422764 C25.1572827,8.76422764 24.753886,9.18157182 24.753886,9.67479675 L24.753886,30.3523035 L28.4578008,30.3523035 C28.9345423,30.3523035 29.337939,29.9349593 29.337939,29.4417344 L29.337939,8.76422764 L25.6340242,8.76422764 Z" id="Shape"></path>
                        <path d="M28.4578008,0.113821138 L24.753886,0.113821138 L24.753886,3.41463415 C24.753886,3.90785908 25.1572827,4.32520325 25.6340242,4.32520325 L29.337939,4.32520325 L29.337939,1.02439024 C29.337939,0.531165312 28.9345423,0.113821138 28.4578008,0.113821138" id="Shape"></path>
                        <path d="M21.0132988,0.113821138 L0.220034542,0.113821138 L0.220034542,30.3523035 L4.25400115,30.3523035 C4.73074266,30.3523035 5.13413932,29.9349593 5.13413932,29.4417344 L5.13413932,17.3387534 L16.3925734,17.3387534 C16.8693149,17.3387534 17.2727116,16.9214092 17.2727116,16.4281843 L17.2727116,13.2411924 L5.17081174,13.2411924 L5.17081174,4.43902439 L20.1331606,4.43902439 C20.6099021,4.43902439 21.0132988,4.02168022 21.0132988,3.52845528 L21.0132988,0.113821138 Z" id="Shape"></path>
                        <path d="M141.372193,15.1382114 L141.372193,30.1626016 L137.631606,30.1626016 C137.154865,30.1626016 136.751468,29.7452575 136.751468,29.2520325 L136.751468,28.6449864 L136.751468,28.0379404 C135.651295,29.7073171 134.074381,30.3902439 131.323949,30.3902439 C130.993898,30.3902439 130.407139,30.3902439 130.407139,30.3902439 C125.896431,30.1246612 122.815947,27.5067751 122.815947,23.7506775 C122.815947,21.1707317 123.732758,17.300813 130.590501,17.300813 L136.238054,17.300813 C136.458089,17.1869919 136.641451,17.0352304 136.714796,16.7696477 L136.714796,15.7452575 C136.714796,15.7452575 136.714796,15.1382114 136.641451,14.796748 C136.604778,14.5311653 136.421416,13.5447154 135.064537,12.9756098 C134.477778,12.7859079 133.707657,12.6720867 132.607484,12.6720867 C132.314105,12.6720867 132.020725,12.6720867 131.727346,12.6341463 C129.086931,12.899729 127.4,14.1138211 127.4,14.1138211 C126.996603,14.3414634 126.446517,14.2276423 126.153138,13.8102981 L124.282844,11.2682927 C126.629879,9.52303523 129.013587,8.30894309 132.020725,8.23306233 C132.020725,8.23306233 132.020725,8.23306233 132.020725,8.23306233 C132.09407,8.23306233 132.167415,8.23306233 132.24076,8.23306233 C140.308693,8.27100271 141.372193,13.1653117 141.372193,15.1382114 Z M136.714796,21.1327913 L130.700518,21.1327913 C128.316811,21.1327913 127.25331,21.8536585 127.25331,23.5230352 C127.25331,25.3062331 128.720207,26.1409214 131.727346,26.1409214 C135.834657,26.1409214 136.751468,25.5718157 136.751468,22.802168 L136.751468,21.1327913 L136.714796,21.1327913 Z" id="Shape"></path>
                    </g>
                </g>
            </g>
        </g>
    </g>
</svg>