<?xml version="1.0" encoding="utf-8"?>
<!-- Generator: Adobe Illustrator 21.0.2, SVG Export Plug-In . SVG Version: 6.00 Build 0)  -->
<svg version="1.1" id="Capa_1" xmlns="http://www.w3.org/2000/svg" xmlns:xlink="http://www.w3.org/1999/xlink" x="0px" y="0px"
	 viewBox="0 0 200 200" style="enable-background:new 0 0 200 200;" xml:space="preserve">
<style type="text/css">
	.st0{fill:#345BA3;}
	.st1{fill:#FFFFFF;}
	.st2{fill-rule:evenodd;clip-rule:evenodd;fill:#345BA3;}
</style>
<g>
	<ellipse transform="matrix(0.947 -0.3213 0.3213 0.947 -26.8873 37.139)" class="st0" cx="99.1" cy="100" rx="98.8" ry="98.8"/>
	<ellipse transform="matrix(0.947 -0.3213 0.3213 0.947 -26.8873 37.139)" class="st1" cx="99.1" cy="100" rx="94.9" ry="94.9"/>
	<path class="st1" d="M14.1,128.9c3,8.8,7.2,16.9,12.5,24.1l162.2-55c-0.2-8.9-1.8-17.9-4.8-26.7c-2.7-7.9-6.3-15.1-10.8-21.7
		L9.5,105.1C9.9,113,11.4,121,14.1,128.9z"/>
	<path class="st0" d="M70.3,15.1c-39,13.2-63,50.7-60.8,90l163.8-55.6C151.1,17,109.3,1.8,70.3,15.1z"/>
	<path class="st0" d="M127.9,185c38.1-12.9,61.8-48.9,60.9-87.1l-162.2,55C49.1,183.8,89.8,197.9,127.9,185z"/>
	<g>
		<g>
			<polygon class="st2" points="98.2,93 102.6,98.9 109.5,96.5 105.3,102.4 109.6,108.2 102.7,106.1 98.5,112 98.4,104.8 
				91.5,102.6 98.4,100.3 			"/>
		</g>
		<polygon class="st2" points="123,68.8 127.4,74.6 134.2,72.2 130,78.2 134.4,84 127.5,81.8 123.3,87.8 123.2,80.5 116.3,78.4 
			123.1,76 		"/>
		<polygon class="st2" points="132.2,94.8 136.6,100.6 143.5,98.2 139.2,104.2 143.6,110 136.7,107.8 132.5,113.8 132.4,106.5 
			125.5,104.4 132.4,102 		"/>
		<polygon class="st2" points="61.1,91.2 65.5,97 72.3,94.6 68.1,100.6 72.5,106.4 65.6,104.2 61.4,110.1 61.3,102.9 54.4,100.8 
			61.2,98.4 		"/>
		<polygon class="st2" points="70.3,117.2 74.7,123 81.5,120.6 77.4,126.6 81.7,132.4 74.8,130.2 70.6,136.2 70.5,128.9 63.6,126.8 
			70.5,124.4 		"/>
	</g>
	<g>
		<g>
			<path class="st1" d="M50.8,68.7L44.1,71l2.6,7.8l-5,1.7l-6.6-19.6l5-1.7l2.6,7.6l6.7-2.3l-2.6-7.6l5-1.7l6.6,19.6l-5,1.7
				L50.8,68.7z"/>
			<path class="st1" d="M62.6,73.4l-6.6-19.6l13.7-4.6l1.5,4.3l-9,3l1.1,3.3l7.2-2.4l1.4,4.1l-7.2,2.4l1.2,3.6l9-3l1.5,4.3
				L62.6,73.4z"/>
			<path class="st1" d="M80.4,45.1c2.8-0.9,5.6-0.5,7.7,0.7L87,50c-1.4-0.7-2.8-1.1-4.5-0.5c-2.6,0.9-3.7,3.3-2.4,7
				c1.3,3.7,3.5,5,6.2,4.1c1.6-0.6,2.5-1.7,3.2-3.1l3.4,2.7c-0.9,2.2-2.9,4.3-5.7,5.2c-4.9,1.7-10-0.8-12.2-7.1
				C73,51.9,75.5,46.8,80.4,45.1z"/>
			<path class="st1" d="M105.7,50.1l-6.7,2.3l2.6,7.8l-5,1.7l-6.6-19.6l5-1.7l2.6,7.6l6.7-2.3l-2.6-7.6l5-1.7l6.6,19.6l-5,1.7
				L105.7,50.1z"/>
			<path class="st1" d="M118.3,32.3c5.4-1.8,10.1,1.3,12.1,7.2c2,5.8,0.2,11.2-5.2,13c-5.3,1.8-10-1.3-11.9-7.2
				C111.2,39.4,113,34.1,118.3,32.3z M123.6,47.8c2.3-0.8,3.2-3,2-6.7c-1.3-3.8-3.4-5-5.7-4.2c-2.2,0.8-3.1,3-1.9,6.7
				C119.3,47.4,121.4,48.6,123.6,47.8z"/>
		</g>
	</g>
	<g>
		<g>
			<path class="st1" d="M63.2,173l-6.6-19.6l13.7-4.6l1.5,4.3l-9,3l1.1,3.3l7.2-2.4l1.4,4.1l-7.2,2.4l1.2,3.6l9-3l1.5,4.3L63.2,173z
				"/>
			<path class="st1" d="M81.4,154.2l3.8,11.3l-4.9,1.7l-6.6-19.6l4.3-1.4l11.2,8.8l-3.8-11.3l5-1.7l6.6,19.6l-4.3,1.5L81.4,154.2z"
				/>
			<path class="st1" d="M108,135.6c2.8-0.9,5.6-0.5,7.7,0.7l-1,4.2c-1.4-0.7-2.8-1.1-4.5-0.5c-2.6,0.9-3.7,3.3-2.4,7
				c1.3,3.7,3.5,5,6.2,4.1c1.6-0.6,2.5-1.7,3.2-3.1l3.4,2.7c-0.9,2.2-2.9,4.3-5.7,5.2c-4.9,1.7-10-0.8-12.2-7.1
				C100.6,142.4,103.1,137.3,108,135.6z"/>
			<path class="st1" d="M121.9,131.2l5.8-2l12.8,17.5l-4.9,1.7l-2.2-3.2l-6.3,2.2l0.2,3.9l-4.9,1.7L121.9,131.2z M127,143.3l3.9-1.3
				l-4.5-6.8L127,143.3z"/>
			<path class="st1" d="M140.8,140.4c1.6,0.5,3.8,0.5,5.3,0c1.3-0.4,2.2-1.4,1.8-2.6c-0.3-0.7-0.9-1.2-2.3-1.2l-2.6,0
				c-3.1,0-5-1.2-5.9-4c-1.1-3.3,0.4-6.9,4.9-8.4c2.2-0.8,4.8-0.9,6.4-0.6l0,4.6c-1.5-0.3-3.4-0.3-4.9,0.2c-1.5,0.5-2,1.4-1.7,2.4
				c0.3,0.8,0.9,1.1,2.1,1.1l2.6,0c3.6,0,5.5,1.4,6.4,4c1.2,3.7-0.7,7.3-5.1,8.8c-2.4,0.8-5.2,0.9-6.7,0.6L140.8,140.4z"/>
			<path class="st1" d="M155.6,119.8l5.8-2l12.8,17.5l-4.9,1.7l-2.2-3.2l-6.3,2.2l0.2,3.9l-4.9,1.7L155.6,119.8z M160.7,131.9
				l3.9-1.3l-4.5-6.8L160.7,131.9z"/>
		</g>
	</g>
	<ellipse transform="matrix(0.947 -0.3213 0.3213 0.947 -27.1678 37.2307)" class="st0" cx="99.2" cy="100.9" rx="98.8" ry="98.8"/>
	<ellipse transform="matrix(0.947 -0.3213 0.3213 0.947 -27.1678 37.2307)" class="st1" cx="99.2" cy="100.9" rx="94.9" ry="94.9"/>
	<path class="st1" d="M14.3,129.8c3,8.8,7.2,16.9,12.5,24.1l162.2-55c-0.2-8.9-1.8-17.9-4.8-26.7c-2.7-7.9-6.3-15.1-10.8-21.7
		L9.6,106C10.1,113.9,11.6,121.9,14.3,129.8z"/>
	<path class="st0" d="M70.4,16c-39,13.2-63,50.7-60.8,90l163.8-55.6C151.3,17.9,109.4,2.7,70.4,16z"/>
	<path class="st0" d="M128.1,185.9C166.1,173,189.9,137,189,98.8l-162.2,55C49.2,184.7,90,198.8,128.1,185.9z"/>
	<g>
		<g>
			<polygon class="st2" points="98.4,93.9 102.7,99.8 109.6,97.4 105.4,103.3 109.8,109.1 102.8,107 98.7,112.9 98.6,105.7 
				91.6,103.5 98.5,101.2 			"/>
		</g>
		<polygon class="st2" points="123.2,69.7 127.5,75.5 134.4,73.1 130.2,79.1 134.5,84.9 127.6,82.7 123.4,88.6 123.3,81.4 
			116.4,79.3 123.3,76.9 		"/>
		<polygon class="st2" points="132.4,95.7 136.7,101.5 143.6,99.1 139.4,105.1 143.7,110.9 136.8,108.7 132.6,114.7 132.6,107.4 
			125.6,105.3 132.5,102.9 		"/>
		<polygon class="st2" points="61.3,92.1 65.6,97.9 72.5,95.5 68.3,101.5 72.6,107.3 65.7,105.1 61.5,111 61.4,103.8 54.5,101.7 
			61.4,99.3 		"/>
		<polygon class="st2" points="70.5,118.1 74.8,123.9 81.7,121.5 77.5,127.5 81.9,133.3 74.9,131.1 70.8,137 70.7,129.8 63.7,127.7 
			70.6,125.3 		"/>
	</g>
	<g>
		<g>
			<path class="st1" d="M50.9,69.6l-6.7,2.3l2.6,7.8l-5,1.7l-6.6-19.6l5-1.7l2.6,7.6l6.7-2.3l-2.6-7.6l5-1.7l6.6,19.6l-5,1.7
				L50.9,69.6z"/>
			<path class="st1" d="M62.7,74.2l-6.6-19.6L69.8,50l1.5,4.3l-9,3l1.1,3.3l7.2-2.4l1.4,4.1l-7.2,2.4l1.2,3.6l9-3l1.5,4.3L62.7,74.2
				z"/>
			<path class="st1" d="M80.6,46c2.8-0.9,5.6-0.5,7.7,0.7l-1,4.2c-1.4-0.7-2.8-1.1-4.5-0.5c-2.6,0.9-3.7,3.3-2.4,7
				c1.3,3.7,3.5,5,6.2,4.1c1.6-0.6,2.5-1.7,3.2-3.1l3.4,2.7c-0.9,2.2-2.9,4.3-5.7,5.2c-4.9,1.7-10-0.8-12.2-7.1
				C73.1,52.8,75.6,47.7,80.6,46z"/>
			<path class="st1" d="M105.8,51l-6.7,2.3l2.6,7.8l-5,1.7l-6.6-19.6l5-1.7l2.6,7.6l6.7-2.3l-2.6-7.6l5-1.7l6.6,19.6l-5,1.7
				L105.8,51z"/>
			<path class="st1" d="M118.4,33.2c5.4-1.8,10.1,1.3,12.1,7.2c2,5.8,0.2,11.2-5.2,13c-5.3,1.8-10-1.3-11.9-7.2
				C111.4,40.3,113.1,35,118.4,33.2z M123.7,48.7c2.3-0.8,3.2-3,2-6.7c-1.3-3.8-3.4-5-5.7-4.2c-2.2,0.8-3.1,3-1.9,6.7
				C119.4,48.3,121.5,49.5,123.7,48.7z"/>
		</g>
	</g>
	<g>
		<g>
			<path class="st1" d="M63.4,173.9l-6.6-19.6l13.7-4.6l1.5,4.3l-9,3l1.1,3.3l7.2-2.4l1.4,4.1l-7.2,2.4l1.2,3.6l9-3l1.5,4.3
				L63.4,173.9z"/>
			<path class="st1" d="M81.6,155.1l3.8,11.3l-4.9,1.7l-6.6-19.6l4.3-1.4l11.2,8.8l-3.8-11.3l5-1.7l6.6,19.6l-4.3,1.5L81.6,155.1z"
				/>
			<path class="st1" d="M108.1,136.5c2.8-0.9,5.6-0.5,7.7,0.7l-1,4.2c-1.4-0.7-2.8-1.1-4.5-0.5c-2.6,0.9-3.7,3.3-2.4,7
				c1.3,3.7,3.5,5,6.2,4.1c1.6-0.6,2.5-1.7,3.2-3.1l3.4,2.7c-0.9,2.2-2.9,4.3-5.7,5.2c-4.9,1.7-10-0.8-12.2-7.1
				C100.7,143.2,103.2,138.2,108.1,136.5z"/>
			<path class="st1" d="M122,132.1l5.8-2l12.8,17.5l-4.9,1.7l-2.2-3.2l-6.3,2.2l0.2,3.9l-4.9,1.7L122,132.1z M127.1,144.2l3.9-1.3
				l-4.5-6.8L127.1,144.2z"/>
			<path class="st1" d="M140.9,141.3c1.6,0.5,3.8,0.5,5.3,0c1.3-0.4,2.2-1.4,1.8-2.6c-0.3-0.7-0.9-1.2-2.3-1.2l-2.6,0
				c-3.1,0-5-1.2-5.9-4c-1.1-3.3,0.4-6.9,4.9-8.4c2.2-0.8,4.8-0.9,6.4-0.6l0,4.6c-1.5-0.3-3.4-0.3-4.9,0.2c-1.5,0.5-2,1.4-1.7,2.4
				c0.3,0.8,0.9,1.1,2.1,1.1l2.6,0c3.6,0,5.5,1.4,6.4,4c1.2,3.7-0.7,7.3-5.1,8.8c-2.4,0.8-5.2,0.9-6.7,0.6L140.9,141.3z"/>
			<path class="st1" d="M155.7,120.7l5.8-2l12.8,17.5l-4.9,1.7l-2.2-3.2l-6.3,2.2l0.2,3.9l-4.9,1.7L155.7,120.7z M160.8,132.8
				l3.9-1.3l-4.5-6.8L160.8,132.8z"/>
		</g>
	</g>
</g>
</svg>
