<?xml version="1.0" encoding="UTF-8"?>
<svg width="181px" height="153px" viewBox="0 0 181 153" version="1.1" xmlns="http://www.w3.org/2000/svg" xmlns:xlink="http://www.w3.org/1999/xlink">
    <!-- Generator: Sketch 50.2 (55047) - http://www.bohemiancoding.com/sketch -->
    <title>Group 15</title>
    <desc>Created with Sketch.</desc>
    <defs></defs>
    <g id="Page-1" stroke="none" stroke-width="1" fill="none" fill-rule="evenodd">
        <g id="Cómo-ser-parte" transform="translate(-950.000000, -1303.000000)">
            <g id="Form" transform="translate(147.000000, 1103.000000)">
                <g id="Group-4">
                    <g id="Group-15" transform="translate(803.000000, 200.000000)">
                        <circle id="Oval" fill="#BDF9FF" cx="145" cy="117" r="33"></circle>
                        <g id="Group-11" fill="#D1D1D1">
                            <path d="M100.293,55.587 C99.028,55.587 98,54.559 98,53.294 C98,52.029 99.028,51 100.293,51 C101.558,51 102.587,52.029 102.587,53.294 C102.587,54.559 101.558,55.587 100.293,55.587 M100.293,45 C95.72,45 92,48.721 92,53.294 C92,57.867 95.72,61.587 100.293,61.587 C104.866,61.587 108.587,57.867 108.587,53.294 C108.587,48.721 104.866,45 100.293,45" id="Fill-1"></path>
                            <polygon id="Fill-6" points="157.259 113.259 148.036 113.259 147.259 113.259 147.259 98 145.036 98 144.259 98 142.036 98 141.259 98 141.259 113.082 141.259 113.259 126 113.259 126 116.082 126 116.259 126 119.082 126 119.259 141.259 119.259 141.259 128.294 141.259 131.294 141.259 134.294 141.259 134.518 144.259 134.518 147.259 134.518 147.259 134.294 147.259 131.294 147.259 128.294 147.259 119.259 157.259 119.259 160.259 119.259 162.518 119.259 162.518 113.259 160.259 113.259"></polygon>
                            <path d="M115.304,58.409 L98.812,74.9 L69.051,45.139 L25.208,88.981 L21.222,88.981 L21.222,21.212 L142.047,21.212 L142.047,80.083 C140.516,80.176 139.012,80.365 137.536,80.641 L115.304,58.409 Z M112.894,88.981 L108.651,88.981 L104.408,88.981 L93.215,88.981 L98.812,83.385 L100.933,81.263 L103.055,79.142 L115.304,66.893 L130.949,82.538 C127.042,84.077 123.465,86.268 120.349,88.981 L112.894,88.981 Z M21.222,94.981 L23.451,94.981 L27.693,94.981 L78.73,94.981 L82.973,94.981 L87.216,94.981 L110.408,94.981 L114.651,94.981 L114.829,94.981 C110.997,100.213 108.528,106.496 107.937,113.312 L21.222,113.312 L21.222,94.981 Z M33.693,88.981 L69.051,53.624 L94.57,79.142 L84.73,88.981 L33.693,88.981 Z M6,128.524 L6,6 L157.27,6 L157.27,82.412 C154.354,81.296 151.264,80.537 148.047,80.204 L148.047,15.212 L15.222,15.212 L15.222,88.981 L15,88.981 L15,91.981 L15,94.981 L15.222,94.981 L15.222,119.312 L107.909,119.312 C108.156,122.515 108.815,125.604 109.839,128.524 L6,128.524 Z M119.717,134.524 C119.012,133.566 118.364,132.563 117.772,131.524 C117.22,130.555 116.716,129.555 116.271,128.524 C115.033,125.653 114.225,122.555 113.925,119.312 C113.839,118.382 113.789,117.441 113.789,116.489 C113.789,116.43 113.793,116.371 113.794,116.312 C113.8,115.3 113.853,114.299 113.955,113.312 C114.697,106.192 117.898,99.792 122.694,94.981 C123.775,93.896 124.939,92.894 126.172,91.981 C127.726,90.831 129.391,89.824 131.151,88.981 C132.595,88.289 134.105,87.714 135.664,87.254 C136.786,86.923 137.936,86.656 139.108,86.455 C140.073,86.289 141.053,86.171 142.047,86.098 C142.343,86.077 142.639,86.055 142.938,86.043 C143.379,86.023 143.823,86.009 144.27,86.009 C144.531,86.009 144.787,86.021 145.047,86.028 C146.06,86.054 147.061,86.129 148.047,86.251 C151.307,86.656 154.41,87.573 157.27,88.928 C158.303,89.417 159.304,89.963 160.27,90.56 C161.314,91.207 162.314,91.917 163.27,92.681 C170.259,98.271 174.749,106.863 174.749,116.489 C174.749,133.296 161.076,146.97 144.27,146.97 C134.207,146.97 125.272,142.065 119.717,134.524 Z M163.27,85.36 L163.27,0 L0,0 L0,134.524 L112.579,134.524 C118.867,145.53 130.712,152.97 144.27,152.97 C164.385,152.97 180.749,136.604 180.749,116.489 C180.749,103.33 173.744,91.778 163.27,85.36 Z" id="Fill-3"></path>
                        </g>
                    </g>
                </g>
            </g>
        </g>
    </g>
</svg>