<?xml version="1.0" encoding="utf-8"?>
<!-- Generator: Adobe Illustrator 21.0.2, SVG Export Plug-In . SVG Version: 6.00 Build 0)  -->
<svg version="1.1" id="Capa_1" xmlns="http://www.w3.org/2000/svg" xmlns:xlink="http://www.w3.org/1999/xlink" x="0px" y="0px"
	 viewBox="0 0 77.1 77.1" style="enable-background:new 0 0 77.1 77.1;" xml:space="preserve">
<style type="text/css">
	.st0{fill:#7AD6DF;}
</style>
<g>
	<circle class="st0" cx="38.5" cy="38.5" r="9.1"/>
	<path class="st0" d="M66.7,0H10.4C4.7,0,0,4.7,0,10.4v56.3c0,5,3.6,9.2,8.3,10.2c0.1,0,0.2,0,0.4,0.1l0,0h0.1
		c0.5,0.1,1,0.1,1.6,0.1h27.8V77l0,0v0.1h12l0,0h16.5c0.7,0,1.4-0.1,2.1-0.2c4.7-1,8.3-5.2,8.3-10.2V10.4C77.1,4.6,72.5,0,66.7,0z
		 M67.4,50.2c0,9.5-7.7,17.2-17.2,17.2H26.9c-9.5,0-17.2-7.7-17.2-17.2V26.9c0-9.5,7.7-17.2,17.2-17.2h23.3
		c9.5,0,17.2,7.7,17.2,17.2V50.2z"/>
	<path class="st0" d="M50.2,15.5H26.9c-6.3,0-11.4,5.1-11.4,11.4v23.3c0,6.3,5.1,11.4,11.4,11.4h23.3c6.3,0,11.4-5.1,11.4-11.4V26.9
		C61.6,20.6,56.5,15.5,50.2,15.5z M38.5,53.5c-8.2,0-14.9-6.7-14.9-14.9s6.7-14.9,14.9-14.9c8.2,0,14.9,6.7,14.9,14.9
		C53.5,46.8,46.8,53.5,38.5,53.5z M53.5,27.3c-2,0-3.6-1.6-3.6-3.6s1.6-3.6,3.6-3.6s3.6,1.6,3.6,3.6C57.1,25.7,55.5,27.3,53.5,27.3z
		"/>
</g>
</svg>
