<?xml version="1.0" encoding="UTF-8"?>
<svg width="19px" height="25px" viewBox="0 0 19 25" version="1.1" xmlns="http://www.w3.org/2000/svg" xmlns:xlink="http://www.w3.org/1999/xlink">
    <!-- Generator: Sketch 50.2 (55047) - http://www.bohemiancoding.com/sketch -->
    <title>Group 20</title>
    <desc>Created with Sketch.</desc>
    <defs></defs>
    <g id="Page-1" stroke="none" stroke-width="1" fill="none" fill-rule="evenodd">
        <g id="Group-20" transform="translate(1.000000, 1.000000)" fill="#FF9D2B" stroke="#FF9D2B">
            <path d="M12.9543687,14.3039305 C12.4887234,15.1321761 11.9582415,16.0166533 11.3782479,16.9339324 C10.5389076,18.2612341 9.5970075,19.6564823 8.57966104,21.0810179 C8.46767041,21.237998 8.35803748,21.3902921 8.2519411,21.5379002 C8.14466586,21.3902921 8.03621178,21.237998 7.9230423,21.0798464 C6.91276894,19.6658543 5.96968996,18.270606 5.12327657,16.9339324 C4.543283,16.0143104 4.01280107,15.1298331 3.54833467,14.3039305 C1.58908809,10.8163956 1.17884873,9.05915596 1.17884873,8.20045154 C1.17884873,4.32398095 4.35113066,1.17149308 8.2519411,1.17149308 C12.1515727,1.17149308 15.3250335,4.32398095 15.3250335,8.20045154 C15.3250335,9.05915596 14.9136153,10.8163956 12.9543687,14.3039305 M8.2519411,0 C3.70158501,0 0,3.67848826 0,8.20045154 C0,9.65193146 0.847592236,11.8976837 2.51919973,14.8744476 C2.99309692,15.7179226 3.53418849,16.6211438 4.12597055,17.5571667 C4.98417242,18.9137557 5.93786104,20.3277479 6.96228059,21.7581409 C7.25345622,22.166992 7.52694913,22.5418698 7.77568621,22.8804313 L8.2519411,23.5247525 L8.72701714,22.8804313 C8.97693307,22.5418698 9.25042597,22.166992 9.54042276,21.7581409 C10.5719154,20.3172044 11.525604,18.9032123 12.3767328,17.5571667 C12.967336,16.6234868 13.5084276,15.7214371 13.9835036,14.8744476 C15.65629,11.8976837 16.5038822,9.65193146 16.5038822,8.20045154 C16.5038822,3.67848826 12.8011183,0 8.2519411,0" id="Fill-1"></path>
            <path d="M8.2519411,10.7821782 C6.91342771,10.7821782 5.8248996,9.68313119 5.8248996,8.33168317 C5.8248996,6.9790099 6.91342771,5.88118812 8.2519411,5.88118812 C9.59045448,5.88118812 10.6789826,6.9790099 10.6789826,8.33168317 C10.6789826,9.68313119 9.59045448,10.7821782 8.2519411,10.7821782 M8.2519411,4.9009901 C6.37858867,4.9009901 4.854083,6.44022772 4.854083,8.33168317 C4.854083,10.2231386 6.37858867,11.7623762 8.2519411,11.7623762 C10.1252935,11.7623762 11.6497992,10.2231386 11.6497992,8.33168317 C11.6497992,6.44022772 10.1252935,4.9009901 8.2519411,4.9009901" id="Fill-4"></path>
        </g>
    </g>
</svg>