<?xml version="1.0" encoding="utf-8"?>
<!-- Generator: Adobe Illustrator 21.0.2, SVG Export Plug-In . SVG Version: 6.00 Build 0)  -->
<svg version="1.1" id="Capa_1" xmlns="http://www.w3.org/2000/svg" xmlns:xlink="http://www.w3.org/1999/xlink" x="0px" y="0px"
	 viewBox="0 0 77.1 77.1" style="enable-background:new 0 0 77.1 77.1;" xml:space="preserve">
<style type="text/css">
	.st0{fill:#7AD6DF;}
</style>
<g>
	<path class="st0" d="M60.1,22.1H17l0,0c-1.4,0-2.5,1.1-2.5,2.5v27.9c0,1.4,1.1,2.5,2.5,2.5h43.1c1.4,0,2.5-1.1,2.5-2.5V24.6
		C62.6,23.2,61.5,22.1,60.1,22.1z M58.3,49.7c-0.5,0.5-1.3,0.4-1.8-0.1l-10.1-9.1L42,44.8c-1.9,1.8-5,1.8-6.9,0l-4.4-4.2l-10.1,9.1
		c-0.1,0.1-0.1,0.1-0.2,0.2c-0.6,0.4-1.4,0.3-1.8-0.3c-0.4-0.6-0.3-1.4,0.3-1.8l10-8.9l-10-9.5c-0.2-0.2-0.4-0.5-0.4-0.8
		c-0.1-0.7,0.4-1.3,1.1-1.4l0,0c0.4,0,0.8,0.1,1,0.4L36.9,43c1,1,2.4,0.9,3.4,0l16.3-15.4c0.5-0.5,1.3-0.5,1.8,0s0.5,1.3,0,1.8
		l-10,9.5l10,8.9c0.1,0,0.1,0.1,0.2,0.2C58.9,48.4,58.9,49.2,58.3,49.7z"/>
	<path class="st0" d="M66.7,0H10.4C4.7,0,0,4.7,0,10.4v56.3c0,5,3.6,9.2,8.3,10.2c0.1,0,0.2,0,0.4,0.1l0,0h0.1
		c0.5,0.1,1,0.1,1.6,0.1h27.8V77l0,0v0.1h12l0,0h16.5c0.7,0,1.4-0.1,2.1-0.2c4.7-1,8.3-5.2,8.3-10.2V10.4C77.1,4.7,72.4,0,66.7,0z
		 M65.1,52.5c0,2.8-2.3,5.1-5.1,5.1H17c-2.8,0-5.1-2.3-5.1-5.1V24.6c0-2.8,2.3-5.1,5.1-5.1h43.1c2.8,0,5.1,2.3,5.1,5.1v27.9H65.1z"
		/>
</g>
</svg>
