<?xml version="1.0" encoding="UTF-8"?>
<svg width="19px" height="20px" viewBox="0 0 19 20" version="1.1" xmlns="http://www.w3.org/2000/svg" xmlns:xlink="http://www.w3.org/1999/xlink">
    <!-- Generator: Sketch 50.2 (55047) - http://www.bohemiancoding.com/sketch -->
    <title>Fill 1</title>
    <desc>Created with Sketch.</desc>
    <defs></defs>
    <g id="Page-1" stroke="none" stroke-width="1" fill="none" fill-rule="evenodd">
        <path d="M17.5363419,14.587092 L14.7210608,12.3760718 C14.4028942,12.1262571 13.8929127,12.1589497 13.6057181,12.4489196 L12.3643759,13.7022575 C11.8389083,14.2328028 10.920308,14.355045 10.3015727,13.9900952 C10.2575784,13.9684185 10.1797965,13.926842 10.0724505,13.8650102 C9.89717735,13.7640893 9.70043498,13.640781 9.48644687,13.4950854 C8.87791816,13.0810965 8.24968002,12.5661868 7.63446419,11.9446705 C7.0188964,11.3235096 6.50961876,10.6899112 6.09994414,10.0769235 C5.9559949,9.86122286 5.83421877,9.66293464 5.73461575,9.4863231 C5.67337573,9.37829511 5.63254905,9.2997616 5.62515801,9.28199384 C5.241528,8.63560269 5.36435999,7.70386129 5.89369902,7.16905168 L7.13504127,5.91571381 C7.4225878,5.62574395 7.45496758,5.11190029 7.20719186,4.78994846 L5.01733321,1.94710667 C4.7910267,1.6532279 4.41162014,1.63012981 4.14800649,1.89629088 L2.28370542,3.77825214 C0.691464894,5.38587917 2.49311813,10.7744858 5.64345963,13.9552704 C8.79344917,17.1353443 14.1308337,18.9544077 15.7227223,17.3474914 L17.5870233,15.4651747 C17.850637,15.1990137 17.8281119,14.8162961 17.5363419,14.587092 Z M17.9688936,14.0263414 C18.5953719,14.5185084 18.6467572,15.3997894 18.0846865,15.967647 L16.2203854,17.8499636 C14.258593,19.8307137 8.53546678,17.8805242 5.14544452,14.4577427 C1.75542226,11.0346058 -0.176102058,5.25724058 1.78604227,3.27577985 L3.65034334,1.39381859 C4.21276605,0.825605587 5.08596427,0.87890887 5.5730688,1.51073046 L7.7625755,4.35357225 C8.22926668,4.95874219 8.1708423,5.87520331 7.63305637,6.4181861 L6.39136217,7.67187932 C6.08832966,7.97784017 6.01265952,8.55244957 6.24318948,8.94298496 C6.25832351,8.97425622 6.29246306,9.03928622 6.34596009,9.13416607 C6.43711621,9.29549734 6.54974153,9.47886064 6.68383606,9.67928098 C7.06887389,10.2560225 7.54964324,10.8544407 8.13212734,11.4421982 C8.71425949,12.0303111 9.30765416,12.5160817 9.87993159,12.9062618 C10.0791376,13.0412968 10.2610979,13.1553658 10.4212371,13.2474028 C10.5155608,13.3021275 10.5799684,13.3362416 10.6338174,13.3639593 C10.9980899,13.5778831 11.5668478,13.5025478 11.8667127,13.1997852 L13.108055,11.9464473 C13.6458409,11.4031092 14.5542345,11.3451863 15.1532605,11.8153212 L17.9688936,14.0263414 Z" id="Fill-1" stroke="#FF9D2B" fill="#FF9D2B"></path>
    </g>
</svg>