<?xml version="1.0" encoding="UTF-8"?>
<svg width="28px" height="30px" viewBox="0 0 28 30" version="1.1" xmlns="http://www.w3.org/2000/svg" xmlns:xlink="http://www.w3.org/1999/xlink">
    <!-- Generator: Sketch 50.2 (55047) - http://www.bohemiancoding.com/sketch -->
    <title>Fill 1</title>
    <desc>Created with Sketch.</desc>
    <defs></defs>
    <g id="Page-1" stroke="none" stroke-width="1" fill="none" fill-rule="evenodd">
        <g id="INDEX" transform="translate(-556.000000, -1855.000000)" fill="#FFFFFF">
            <g id="Group-2" transform="translate(544.000000, 1841.000000)">
                <path d="M34.3735813,41.6208931 C32.4348048,41.6208931 30.8588006,40.0448889 30.8588006,38.1061124 C30.8588006,36.1673918 32.4348048,34.5913877 34.3735813,34.5913877 C36.3123578,34.5913877 37.8883619,36.1673918 37.8883619,38.1061124 C37.8883619,40.0448889 36.3123578,41.6208931 34.3735813,41.6208931 M17.6264746,32.420683 C15.6876981,32.420683 14.111694,30.8446788 14.111694,28.9059023 C14.111694,26.9671258 15.6876981,25.3911776 17.6264746,25.3911776 C19.5652512,25.3911776 21.1411994,26.9671258 21.1411994,28.9059023 C21.1411994,30.8446788 19.5592656,32.420683 17.6264746,32.420683 M34.3735813,16.2028268 C36.3123578,16.2028268 37.8883619,17.778831 37.8883619,19.7176075 C37.8883619,21.6563281 36.3123578,23.2323322 34.3735813,23.2323322 C32.4348048,23.2323322 30.8588006,21.6563281 30.8588006,19.7176075 C30.8588006,17.778831 32.4407904,16.2028268 34.3735813,16.2028268 M34.3735813,32.991553 C32.7262534,32.991553 31.2572629,33.7766182 30.3176348,34.98985 L22.4495854,30.5948498 C22.6339644,30.0655992 22.7350484,29.4946732 22.7350484,28.9059023 C22.7350484,28.3112017 22.6339644,27.7462054 22.4436558,27.2109693 L30.3057755,22.8220106 C31.2394739,24.041172 32.7143381,24.8321109 34.3676516,24.8321109 C37.1865917,24.8321109 39.4881407,22.5365476 39.4881407,19.7116778 C39.4881407,16.8867521 37.1925214,14.5911888 34.3676516,14.5911888 C31.5427818,14.5911888 29.2471626,16.8867521 29.2471626,19.7116219 C29.2471626,20.3063784 29.3483025,20.8773044 29.5385553,21.4066109 L21.6824211,25.7955695 C20.7486668,24.5704785 19.2738026,23.7854133 17.620545,23.7854133 C14.8015489,23.7854133 12.5,26.0810325 12.5,28.9059023 C12.5,31.7307721 14.8015489,34.0263914 17.6264746,34.0263914 C19.2797882,34.0263914 20.7546524,33.2354524 21.6942804,32.0103054 L29.5564002,36.4052497 C29.3660915,36.9404858 29.2590779,37.5173974 29.2590779,38.1120421 C29.2590779,40.9310381 31.5546412,43.232587 34.379511,43.232587 C37.2044367,43.232587 39.5,40.9369678 39.5,38.1120421 C39.5,35.2871723 37.198507,32.991553 34.3735813,32.991553" id="Fill-1"></path>
            </g>
        </g>
    </g>
</svg>