<?xml version="1.0" encoding="UTF-8"?>
<svg width="46px" height="46px" viewBox="0 0 46 46" version="1.1" xmlns="http://www.w3.org/2000/svg" xmlns:xlink="http://www.w3.org/1999/xlink">
    <!-- Generator: Sketch 50.2 (55047) - http://www.bohemiancoding.com/sketch -->
    <title>Fill 3</title>
    <desc>Created with Sketch.</desc>
    <defs></defs>
    <g id="Page-1" stroke="none" stroke-width="1" fill="none" fill-rule="evenodd">
        <g id="INDEX" transform="translate(-122.000000, -3707.000000)" fill="#085BA8">
            <g id="Footer" transform="translate(-8.000000, 3659.000000)">
                <g id="Social-media" transform="translate(73.000000, 48.000000)">
                    <g id="Group-5" transform="translate(57.000000, 0.000000)">
                        <path d="M34.8369471,18.3692529 C34.8480059,18.6070176 34.8507706,18.8447824 34.8507706,19.0825471 C34.8507706,26.3758412 29.3020059,34.7805471 19.1555353,34.7805471 C16.0397118,34.7805471 13.1395353,33.8654294 10.7010647,32.3006059 C11.1295941,32.3531353 11.5691824,32.3780176 12.0143,32.3780176 C14.5993,32.3780176 16.9769471,31.4960765 18.8680059,30.0169588 C16.4516529,29.9727235 14.4140647,28.3774882 13.7118294,26.1850765 C14.0491235,26.2514294 14.3947118,26.2846059 14.7485941,26.2846059 C15.2545353,26.2846059 15.7411235,26.2182529 16.2055941,26.0910765 C13.6814176,25.5823706 11.7793,23.3540176 11.7793,20.6805471 L11.7793,20.6141941 C12.5230059,21.0261353 13.3717706,21.2749588 14.2758294,21.3026059 C12.7967118,20.3128412 11.8235353,18.6236059 11.8235353,16.7076647 C11.8235353,15.6985471 12.0944765,14.7502529 12.5700059,13.9346647 C15.2932412,17.2744294 19.3545941,19.4696059 23.9412412,19.6990765 C23.8472412,19.2981941 23.8002412,18.8779588 23.8002412,18.4411353 C23.8002412,15.3971941 26.2663588,12.9255471 29.3158294,12.9255471 C30.9027706,12.9255471 32.3376529,13.5946059 33.3412412,14.6673118 C34.5991824,14.4212529 35.7797118,13.9623118 36.8468882,13.3319588 C36.4321824,14.6203118 35.5585353,15.6985471 34.4222412,16.3814294 C35.5364176,16.2487235 36.6008294,15.9529 37.5878294,15.5133118 C36.8496529,16.6191941 35.9151824,17.5923706 34.8369471,18.3692529 M23.3357706,0.760841176 C10.9333,0.760841176 0.8753,10.8188412 0.8753,23.2213118 C0.8753,35.6265471 10.9333,45.6845471 23.3357706,45.6845471 C35.7410059,45.6845471 45.7990059,35.6265471 45.7990059,23.2213118 C45.7990059,10.8188412 35.7410059,0.760841176 23.3357706,0.760841176" id="Fill-3"></path>
                    </g>
                </g>
            </g>
        </g>
    </g>
</svg>