<?xml version="1.0" encoding="UTF-8"?>
<svg width="18px" height="18px" viewBox="0 0 18 18" version="1.1" xmlns="http://www.w3.org/2000/svg" xmlns:xlink="http://www.w3.org/1999/xlink">
    <!-- Generator: Sketch 50.2 (55047) - http://www.bohemiancoding.com/sketch -->
    <title>Group 12</title>
    <desc>Created with Sketch.</desc>
    <defs>
        <polygon id="path-1" points="0 0.036241893 17.4643824 0.036241893 17.4643824 17.551511 0 17.551511"></polygon>
    </defs>
    <g id="Page-1" stroke="none" stroke-width="1" fill="none" fill-rule="evenodd">
        <g id="Group-12">
            <g id="Group-3">
                <mask id="mask-2" fill="white">
                    <use xlink:href="#path-1"></use>
                </mask>
                <g id="Clip-2"></g>
                <path d="M13.5669224,13.5327595 C12.2755211,14.8174547 10.5585372,15.5249607 8.73219962,15.5249607 C7.66283227,15.5249607 6.63902546,15.2862351 5.68911768,14.8155697 L5.07501887,14.5112039 L2.37145137,15.1484201 L2.94053704,12.4002472 L2.63799316,11.8108683 C2.14486979,10.850143 1.89483422,9.81125275 1.89483422,8.72310096 C1.89483422,6.90624729 2.60603341,5.19817948 3.89743471,3.91344239 C5.17729849,2.64022479 6.92232612,1.92119928 8.73232595,1.92119928 C10.5586636,1.92124117 12.2755632,2.62874719 13.5669645,3.9134005 C14.8583658,5.1980957 15.5696071,6.90616351 15.5696492,8.72297529 C15.5696071,10.5236179 14.8468283,12.2595419 13.5669224,13.5327595 M8.30526957,0.0463711758 C3.65535749,0.266623788 -0.0140766075,4.11899195 2.94746451e-05,8.74999372 C0.00432446085,10.1604817 0.346618019,11.4917576 0.950442551,12.6680858 L0.0233571448,17.144894 C-0.0267931353,17.3870965 0.192756454,17.5990969 0.434581021,17.5421697 L4.84422652,16.5028187 C5.9771344,17.0642576 7.24962934,17.3885207 8.59636016,17.4089625 C13.349015,17.4811793 17.3118978,13.7270409 17.4600327,9.00082534 C17.618863,3.93463825 13.4157137,-0.19574752 8.30526957,0.0463711758" id="Fill-1" fill="#28D166" mask="url(#mask-2)"></path>
            </g>
            <path d="M12.4396442,10.691685 L10.9951478,10.2414689 C10.8052405,10.1822494 10.6007332,10.2407272 10.4623573,10.3937921 L10.1091175,10.7844765 C9.96016924,10.9492525 9.73415763,11.0021479 9.53702229,10.9155634 C8.85370128,10.6154063 7.41628904,9.22802392 7.04920447,8.53405947 C6.94330086,8.33387666 6.96081362,8.08357008 7.09084671,7.90091499 L7.39924377,7.4678362 C7.52007098,7.29810241 7.54556696,7.07020319 7.46566277,6.87408026 L6.85793069,5.38192201 C6.71236267,5.0245754 6.29166103,4.92054124 6.0168151,5.17283872 C5.61366217,5.54298953 5.13531589,6.1055157 5.07716779,6.72862762 C4.97464447,7.82732985 5.40868744,9.21229192 7.05003156,10.875238 C8.94622759,12.7964542 10.4646948,13.0502741 11.4533562,12.7903253 C12.0141239,12.6428428 12.4622634,12.0517804 12.7450925,11.567758 C12.9379126,11.2377765 12.785656,10.7995839 12.4396442,10.691685" id="Fill-4" fill="#28D166"></path>
        </g>
    </g>
</svg>